<svg width="180" height="180" viewBox="0 0 180 180" fill="none" xmlns="http://www.w3.org/2000/svg">
<mask id="mask0_18_101" style="mask-type:alpha" maskUnits="userSpaceOnUse" x="0" y="0" width="180" height="180">
<circle cx="90" cy="90" r="90" fill="#F5F5F4"/>
</mask>
<g mask="url(#mask0_18_101)">
<circle cx="90" cy="90" r="90" fill="#F5F5F4"/>
<path d="M156 200.714C156 260.057 150.047 262 90.4 262C30.7532 262 24 260.057 24 200.714C24 141.372 30.7532 106 90.4 106C150.047 106 156 141.372 156 200.714Z" fill="#1B1917"/>
<path d="M4 159.41C4 216.539 12.8965 250 27.6151 250C42.3336 250 44 236.961 44 179.831C44 122.702 42.3336 117 27.6151 117C12.8965 117 4 137.819 4 159.41Z" fill="#1B1917"/>
<path d="M176 159.41C176 216.539 167.103 250 152.385 250C137.666 250 136 236.961 136 179.831C136 122.702 137.666 117 152.385 117C167.103 117 176 137.819 176 159.41Z" fill="#1B1917"/>
<circle cx="90" cy="79" r="59" fill="#1B1917"/>
<ellipse cx="107.5" cy="75.5" rx="9.5" ry="11.5" fill="#F5F5F4"/>
<ellipse cx="72.5" cy="75.5" rx="9.5" ry="11.5" fill="#F5F5F4"/>
<path d="M90 103C90 103 91.6984 95.3077 97 88.0639C90 81.312 90 81.312 83 88.0639C88.4402 95.3077 90 103 90 103Z" fill="#F5F5F4"/>
<ellipse cx="79.4462" cy="21.0933" rx="6" ry="10.5" transform="rotate(-30 79.4462 21.0933)" fill="#1B1917"/>
<ellipse cx="86.5132" cy="20.6951" rx="6" ry="10.5" transform="rotate(15 86.5132 20.6951)" fill="#1B1917"/>
</g>
</svg>
